<svg width="24" height="24" viewBox="0 0 24 24" fill="none" xmlns="http://www.w3.org/2000/svg">
<path d="M22.8002 0H18.4002C17.7375 0 17.2002 0.537106 17.2002 1.19966V3.57779C17.1159 3.54106 17.0276 3.51422 16.937 3.49781L12.6038 2.73283C11.9516 2.61925 11.3302 3.05418 11.2138 3.70575L10.3698 8.49119C10.2807 8.43083 10.184 8.38256 10.0822 8.34763L5.89744 6.98802C5.26717 6.78333 4.59025 7.12814 4.38544 7.7582L4.01983 8.88348C4.01983 8.88868 4.01344 8.89228 4.01184 8.89748C4.01024 8.90268 4.01184 8.90828 4.00984 8.91347L0.0590346 21.0696C-0.14571 21.6997 0.199195 22.3764 0.829435 22.5812L5.01423 23.9408C5.13437 23.9799 5.2599 23.9999 5.38624 24C5.90561 23.9986 6.36538 23.6639 6.52624 23.1702L9.26904 14.7326L8.50504 19.065L8.15744 21.034L8.01864 21.8214C7.96329 22.1348 8.03474 22.4573 8.21725 22.7179C8.39976 22.9786 8.67839 23.1561 8.99184 23.2114L13.325 23.9752C13.6385 24.0305 13.9611 23.9591 14.2218 23.7766C14.4826 23.5942 14.6601 23.3156 14.7154 23.0023L15.2002 20.2455L17.2002 8.91387V22.7935C17.2002 23.4561 17.7375 23.9932 18.4002 23.9932H22.8002C23.463 23.9932 24.0002 23.4561 24.0002 22.7935V1.19966C24.0002 0.537106 23.463 0 22.8002 0ZM9.22304 19.5972L14.343 20.4998L14.1346 21.6815L9.01464 20.7785L9.22304 19.5972ZM14.483 19.7124L9.36304 18.8095L11.4466 6.99522L16.5666 7.89816L14.483 19.7124ZM11.585 6.20784L11.793 5.02618L16.913 5.92912L16.7046 7.11039L11.585 6.20784ZM18.0002 4.39875H23.2002V19.5944H18.0002V4.39875ZM18.0002 3.59898V2.39932H23.2002V3.59898H18.0002ZM18.0002 20.3942H23.2002V21.5939H18.0002V20.3942ZM18.4002 0.799773H22.8002C23.0212 0.799773 23.2002 0.978809 23.2002 1.19966V1.59955H18.0002V1.19966C18.0002 0.978809 18.1793 0.799773 18.4002 0.799773ZM12.3954 3.5146C12.4188 3.51443 12.4421 3.51644 12.465 3.5206L16.8002 4.28439C17.0177 4.32277 17.1629 4.53004 17.1246 4.74745L17.055 5.14134L11.9322 4.2388L12.0002 3.84491C12.0341 3.65338 12.2009 3.51397 12.3954 3.5146ZM5.14623 8.00573C5.21451 7.79571 5.44015 7.68078 5.65024 7.749L9.83504 9.10862C10.0451 9.17687 10.1601 9.40245 10.0918 9.61248L9.84424 10.3723L4.89944 8.76592L5.14623 8.00573ZM6.26104 21.3983L1.31543 19.7944L4.65224 9.5265L9.59704 11.134L6.26104 21.3983ZM5.76544 22.9231C5.69716 23.1331 5.47152 23.2481 5.26144 23.1798L1.07663 21.8202C0.866715 21.7518 0.751952 21.5263 0.820235 21.3164L1.06823 20.5542L6.01384 22.1597L5.76544 22.9231ZM13.4642 23.187L9.13104 22.4232C8.91359 22.3849 8.76838 22.1776 8.80664 21.9602L8.87584 21.5663L13.9958 22.4692L13.9262 22.8627C13.8878 23.0796 13.6813 23.2245 13.4642 23.187V23.187ZM22.8002 23.1934H18.4002C18.1793 23.1934 18.0002 23.0144 18.0002 22.7935V22.3937H23.2002V22.7935C23.2002 23.0144 23.0212 23.1934 22.8002 23.1934Z" fill="#FF8888"/>
<path d="M21.6003 5.59842H19.6003C19.1585 5.59842 18.8003 5.95649 18.8003 6.39819V17.595C18.8003 18.0367 19.1585 18.3948 19.6003 18.3948H21.6003C22.0421 18.3948 22.4003 18.0367 22.4003 17.595V6.39819C22.4003 5.95649 22.0421 5.59842 21.6003 5.59842ZM19.6003 17.595V6.39819H21.6003V17.595H19.6003Z" fill="#FF8888"/>
<path d="M5.7638 11.9122C5.66286 11.8795 5.55304 11.8882 5.45851 11.9364C5.36399 11.9846 5.29251 12.0684 5.2598 12.1694L3.0718 18.907C3.00355 19.1171 3.11852 19.3426 3.3286 19.4109C3.36854 19.4238 3.41024 19.4304 3.4522 19.4305C3.62559 19.4304 3.7792 19.3187 3.8326 19.1538L6.0206 12.4161C6.08885 12.2061 5.97388 11.9805 5.7638 11.9122V11.9122Z" fill="#FF8888"/>
<path d="M6.52381 15.6152C6.31372 15.547 6.08808 15.6619 6.01981 15.8719L4.8478 19.4829C4.77955 19.6929 4.89452 19.9185 5.1046 19.9868C5.14454 19.9997 5.18624 20.0063 5.2282 20.0064C5.4016 20.0063 5.5552 19.8945 5.60861 19.7296L6.78061 16.119C6.84886 15.909 6.73389 15.6834 6.52381 15.6152Z" fill="#FF8888"/>
<path d="M15.1075 9.26515L12.3499 8.77875C12.1323 8.74031 11.9247 8.88555 11.8863 9.10315C11.8479 9.32075 11.9931 9.52831 12.2107 9.56675L14.9683 10.0532C14.9914 10.0571 15.0148 10.0591 15.0383 10.0592C15.2458 10.0592 15.4189 9.90062 15.4369 9.69388C15.455 9.48714 15.3119 9.30096 15.1075 9.26515Z" fill="#FF8888"/>
<path d="M14.8295 10.8403L12.0723 10.3543C11.9301 10.3259 11.7836 10.3767 11.6896 10.4871C11.5955 10.5974 11.5685 10.75 11.6191 10.8859C11.6696 11.0219 11.7898 11.1198 11.9331 11.1419L14.6907 11.6283C14.7136 11.6322 14.7369 11.6342 14.7603 11.6343C14.9678 11.6344 15.1409 11.4757 15.1589 11.269C15.1769 11.0623 15.0339 10.8761 14.8295 10.8403V10.8403Z" fill="#FF8888"/>
</svg>
