<svg width="20" height="20" viewBox="0 0 20 20" fill="none" xmlns="http://www.w3.org/2000/svg">
<g clip-path="url(#clip0)">
<path d="M17.4197 3.38663C17.3072 3.22623 17.1168 3.15397 16.9304 3.18166C16.9233 3.17997 16.9162 3.17693 16.9091 3.17592L9.27577 2.05548C9.19236 2.04299 9.10727 2.0521 9.02791 2.08115L2.91414 4.32201C2.91144 4.32303 2.90908 4.32472 2.90638 4.32573C2.89996 4.32843 2.89388 4.33248 2.88713 4.33485C2.8537 4.3497 2.82263 4.36726 2.79393 4.38786C2.78515 4.39428 2.77671 4.4007 2.76793 4.40779C2.73652 4.43345 2.70782 4.46148 2.68384 4.49356C2.68249 4.49558 2.68047 4.4966 2.67912 4.49862L0.0975234 8.03012C-0.00141801 8.16553 -0.027082 8.3418 0.0293112 8.49984C0.0857044 8.65821 0.217063 8.77775 0.379827 8.81963L2.62002 9.39808V14.9364C2.62002 15.159 2.76556 15.3558 2.97864 15.421L11.181 17.9273C11.1837 17.9286 11.1867 17.9276 11.1894 17.929C11.2333 17.9411 11.2792 17.9489 11.3252 17.9492C11.3262 17.9492 11.3275 17.9499 11.3289 17.9499H11.3292C11.3775 17.9499 11.4248 17.9411 11.4721 17.9273C11.4869 17.9226 11.5008 17.9162 11.516 17.9097C11.5359 17.9023 11.5555 17.8969 11.5751 17.8868L17.4609 14.6204C17.622 14.5309 17.7216 14.3614 17.7216 14.1773V8.63998L19.7126 7.68433C19.8466 7.62017 19.9456 7.49962 19.9834 7.35577C20.0209 7.21158 19.9935 7.0586 19.9081 6.9367L17.4197 3.38663ZM9.25585 3.07664L15.2139 3.95124L11.2617 5.78891L5.00306 4.63572L9.25585 3.07664ZM3.30957 5.35364L10.481 6.67533L8.37314 9.83741L1.35607 8.02573L3.30957 5.35364ZM3.63307 14.5616V9.65945L8.46803 10.9079C8.51024 10.9183 8.55245 10.9241 8.59466 10.9241C8.76114 10.9241 8.92053 10.8417 9.01609 10.6985L10.8224 7.98926V16.7582L3.63307 14.5616ZM16.7082 13.8788L11.8351 16.5826V8.5819L12.7249 10.4726C12.7826 10.5945 12.8866 10.689 13.0133 10.7336C13.0683 10.7539 13.1257 10.763 13.1828 10.763C13.2581 10.763 13.3327 10.7461 13.4019 10.7137L16.7075 9.12726L16.7082 13.8788ZM13.4246 9.57941L12.0039 6.5612L16.8335 4.3156L18.736 7.02956L13.4246 9.57941Z" fill="#FF8888"/>
</g>
<defs>
<clipPath id="clip0">
<rect width="20" height="20" fill="white"/>
</clipPath>
</defs>
</svg>
