<svg width="24" height="25" viewBox="0 0 24 25" fill="none" xmlns="http://www.w3.org/2000/svg">
<path d="M20.9062 1.95312H18.75V0.78125C18.75 0.349805 18.4142 0 18 0C17.5858 0 17.25 0.349805 17.25 0.78125V1.95312H6.75V0.78125C6.75 0.349805 6.41423 0 6 0C5.58577 0 5.25 0.349805 5.25 0.78125V1.95312H3.09375C1.38783 1.95312 0 3.39878 0 5.17578V21.7773C0 23.5543 1.38783 25 3.09375 25H20.9062C22.6122 25 24 23.5543 24 21.7773V5.17578C24 3.39878 22.6122 1.95312 20.9062 1.95312ZM3.09375 3.51562H5.25V4.29688C5.25 4.72832 5.58577 5.07812 6 5.07812C6.41423 5.07812 6.75 4.72832 6.75 4.29688V3.51562H17.25V4.29688C17.25 4.72832 17.5858 5.07812 18 5.07812C18.4142 5.07812 18.75 4.72832 18.75 4.29688V3.51562H20.9062C21.7851 3.51562 22.5 4.26035 22.5 5.17578V7.03125H1.5V5.17578C1.5 4.26035 2.21494 3.51562 3.09375 3.51562ZM20.9062 23.4375H3.09375C2.21494 23.4375 1.5 22.6928 1.5 21.7773V8.59375H22.5V21.7773C22.5 22.6928 21.7851 23.4375 20.9062 23.4375Z" fill="#C7B9B9"/>
</svg>
