<svg width="20" height="20" viewBox="0 0 20 20" fill="none" xmlns="http://www.w3.org/2000/svg">
<path d="M17.3303 3.66667C17.3311 3.57871 17.297 3.494 17.2356 3.431L13.9023 0.0976667C13.8396 0.0358333 13.7547 0.00175 13.6666 0.003V0H3.66663C3.11433 0 2.66663 0.447708 2.66663 1V19C2.66663 19.5523 3.11433 20 3.66663 20H16.3333C16.8856 20 17.3333 19.5523 17.3333 19V3.66667H17.3303ZM14 1.138L16.1953 3.33333H14.3333C14.1492 3.33333 14 3.18408 14 3V1.138ZM16.6666 19C16.6666 19.1841 16.5174 19.3333 16.3333 19.3333H3.66663C3.48254 19.3333 3.33329 19.1841 3.33329 19V1C3.33329 0.815917 3.48254 0.666667 3.66663 0.666667H13.3333V3C13.3333 3.55229 13.781 4 14.3333 4H16.6666V19Z" fill="#FF8888"/>
<path d="M6 9C5.44771 9 5 9.44771 5 10C5 10.5523 5.44771 11 6 11C6.55229 11 7 10.5523 7 10C7 9.44771 6.55229 9 6 9ZM6 10.3333C5.81592 10.3333 5.66667 10.1841 5.66667 10C5.66667 9.81592 5.81592 9.66667 6 9.66667C6.18408 9.66667 6.33333 9.81592 6.33333 10C6.33333 10.1841 6.18408 10.3333 6 10.3333Z" fill="#FF8888"/>
<path d="M15 9.66667H8.33337V10.3333H15V9.66667Z" fill="#FF8888"/>
<path d="M6 5.66667C5.44771 5.66667 5 6.11437 5 6.66667C5 7.21896 5.44771 7.66667 6 7.66667C6.55229 7.66667 7 7.21896 7 6.66667C7 6.11437 6.55229 5.66667 6 5.66667ZM6 7C5.81592 7 5.66667 6.85075 5.66667 6.66667C5.66667 6.48258 5.81592 6.33333 6 6.33333C6.18408 6.33333 6.33333 6.48258 6.33333 6.66667C6.33333 6.85075 6.18408 7 6 7Z" fill="#FF8888"/>
<path d="M15 6.33333H8.33337V7H15V6.33333Z" fill="#FF8888"/>
<path d="M6 12.3333C5.44771 12.3333 5 12.781 5 13.3333C5 13.8856 5.44771 14.3333 6 14.3333C6.55229 14.3333 7 13.8856 7 13.3333C7 12.781 6.55229 12.3333 6 12.3333ZM6 13.6667C5.81592 13.6667 5.66667 13.5174 5.66667 13.3333C5.66667 13.1493 5.81592 13 6 13C6.18408 13 6.33333 13.1493 6.33333 13.3333C6.33333 13.5174 6.18408 13.6667 6 13.6667Z" fill="#FF8888"/>
<path d="M15 13H8.33337V13.6667H15V13Z" fill="#FF8888"/>
<path d="M6 15.6667C5.44771 15.6667 5 16.1144 5 16.6667C5 17.219 5.44771 17.6667 6 17.6667C6.55229 17.6667 7 17.219 7 16.6667C7 16.1144 6.55229 15.6667 6 15.6667ZM6 17C5.81592 17 5.66667 16.8508 5.66667 16.6667C5.66667 16.4826 5.81592 16.3333 6 16.3333C6.18408 16.3333 6.33333 16.4826 6.33333 16.6667C6.33333 16.8508 6.18408 17 6 17Z" fill="#FF8888"/>
<path d="M15 16.3333H8.33337V17H15V16.3333Z" fill="#FF8888"/>
</svg>
