<svg width="23" height="23" viewBox="0 0 23 23" fill="none" xmlns="http://www.w3.org/2000/svg">
<g clip-path="url(#clip0)">
<path d="M22.7894 10.6305L13.8508 1.69137C12.5543 0.395358 10.4457 0.395358 9.14921 1.69137L0.210573 10.6305C-0.0701911 10.9112 -0.0701911 11.3663 0.210573 11.647C0.490889 11.9278 0.946401 11.9278 1.22672 11.647L1.79678 11.077V20.2142C1.79678 21.3554 2.72196 22.2806 3.86321 22.2806H7.45699C7.7051 22.2806 7.90621 22.0795 7.90621 21.8314V15.1829C7.90621 13.9424 8.91185 12.9368 10.1523 12.9368H12.8477C14.0882 12.9368 15.0938 13.9424 15.0938 15.1829V21.8314C15.0938 22.0795 15.2949 22.2806 15.543 22.2806H19.1368C20.278 22.2806 21.2032 21.3554 21.2032 20.2142V11.077L21.7733 11.647C21.9134 11.7872 22.0976 11.8577 22.2814 11.8577C22.4651 11.8577 22.6493 11.7872 22.7894 11.647C23.0702 11.3663 23.0702 10.9112 22.7894 10.6305Z" fill="#FF9698"/>
</g>
<defs>
<clipPath id="clip0">
<rect width="23" height="23" fill="white"/>
</clipPath>
</defs>
</svg>
