<svg width="20" height="20" viewBox="0 0 20 20" fill="none" xmlns="http://www.w3.org/2000/svg">
<g clip-path="url(#clip0)">
<path d="M18.125 17.5H1.87501C0.841081 17.5 0 16.6589 0 15.625V12.5C0 12.1545 0.279533 11.875 0.625004 11.875C1.65893 11.875 2.50002 11.0339 2.50002 9.99997C2.50002 8.96604 1.65893 8.12496 0.625004 8.12496C0.279533 8.125 0 7.84547 0 7.5V4.37498C0 3.34105 0.841081 2.49997 1.87501 2.49997H18.125C19.159 2.49997 20 3.34105 20 4.37498V7.5C20 7.84547 19.7205 8.125 19.375 8.125C18.3411 8.125 17.5 8.96609 17.5 10C17.5 11.0339 18.3411 11.875 19.375 11.875C19.7205 11.875 20 12.1546 20 12.5V15.625C20 16.6589 19.159 17.5 18.125 17.5ZM1.25001 13.0621V15.625C1.25001 15.9698 1.53017 16.25 1.87501 16.25H18.125C18.4699 16.25 18.75 15.9698 18.75 15.625V13.0621C17.3255 12.7716 16.25 11.5094 16.25 9.99997C16.25 8.49055 17.3254 7.22838 18.75 6.93782V4.37498C18.75 4.03014 18.4699 3.74998 18.125 3.74998H1.87501C1.53017 3.74998 1.25001 4.03014 1.25001 4.37498V6.93786C2.67456 7.22838 3.75002 8.49059 3.75002 10C3.75002 11.5094 2.67456 12.7716 1.25001 13.0621Z" fill="#FF8888"/>
<path d="M7.54016 14.772L11.2888 4.77552L12.4592 5.21442L8.71056 15.2109L7.54016 14.772Z" fill="#FF8888"/>
<path d="M7.04335 10.2104C6.00942 10.2104 5.16833 9.36934 5.16833 8.33541C5.16833 7.30148 6.00942 6.4604 7.04335 6.4604C8.07728 6.4604 8.91836 7.30148 8.91836 8.33541C8.91836 9.36934 8.07728 10.2104 7.04335 10.2104ZM7.04335 7.7104C6.69851 7.7104 6.41834 7.99057 6.41834 8.33541C6.41834 8.68025 6.69851 8.96041 7.04335 8.96041C7.38819 8.96041 7.66835 8.68025 7.66835 8.33541C7.66835 7.99057 7.38819 7.7104 7.04335 7.7104Z" fill="#FF8888"/>
<path d="M13.5037 14.0866C12.4697 14.0866 11.6287 13.2456 11.6287 12.2116C11.6287 11.1777 12.4697 10.3366 13.5037 10.3366C14.5376 10.3366 15.3787 11.1777 15.3787 12.2116C15.3787 13.2456 14.5376 14.0866 13.5037 14.0866ZM13.5037 11.5866C13.1588 11.5866 12.8787 11.8668 12.8787 12.2116C12.8787 12.5565 13.1588 12.8366 13.5037 12.8366C13.8485 12.8366 14.1287 12.5565 14.1287 12.2116C14.1287 11.8668 13.8485 11.5866 13.5037 11.5866Z" fill="#FF8888"/>
</g>
<defs>
<clipPath id="clip0">
<rect width="20" height="20" fill="white"/>
</clipPath>
</defs>
</svg>
