<svg width="40" height="40" viewBox="0 0 40 40" fill="none" xmlns="http://www.w3.org/2000/svg">
<path d="M20 0C8.9543 0 0 8.9543 0 20C0 31.0457 8.9543 40 20 40C31.0457 40 40 31.0457 40 20C40 8.9543 31.0457 0 20 0ZM20 37.5C10.335 37.5 2.5 29.665 2.5 20C2.5 10.335 10.335 2.5 20 2.5C29.665 2.5 37.5 10.335 37.5 20C37.5 29.665 29.665 37.5 20 37.5Z" fill="#FF9698"/>
<path d="M22.8625 9.125L12.8625 19.125C12.3778 19.6126 12.3778 20.3999 12.8625 20.8875L22.8625 30.8875L24.625 29.1125L15.5125 20L24.625 10.8875L22.8625 9.125Z" fill="#FF9698"/>
</svg>
