<svg width="24" height="24" viewBox="0 0 24 24" fill="none" xmlns="http://www.w3.org/2000/svg">
<path d="M20.9039 2.01754C20.7689 1.77542 20.5404 1.66634 20.3167 1.70814C20.3082 1.70559 20.2997 1.701 20.2912 1.69947L11.1311 0.00823994C11.031 -0.0106195 10.9289 0.0031429 10.8337 0.0469784L3.49713 3.42945C3.49389 3.43097 3.49105 3.43352 3.48781 3.43505C3.48011 3.43913 3.47282 3.44525 3.46471 3.44881C3.4246 3.47124 3.38732 3.49775 3.35287 3.52884C3.34234 3.53852 3.33221 3.54821 3.32167 3.55891C3.28399 3.59765 3.24954 3.63996 3.22077 3.68838C3.21915 3.69144 3.21672 3.69297 3.2151 3.69603L0.117175 9.02662C-0.00155513 9.23102 -0.032352 9.49709 0.0353201 9.73564C0.102992 9.97469 0.260624 10.1551 0.455941 10.2183L3.14418 11.0915V19.4513C3.14418 19.7872 3.31883 20.0844 3.57453 20.1827L13.4174 23.9659C13.4206 23.9679 13.4243 23.9664 13.4275 23.9684C13.4802 23.9868 13.5353 23.9985 13.5904 23.999C13.5916 23.999 13.5932 24 13.5949 24H13.5953C13.6532 24 13.7099 23.9867 13.7667 23.9659C13.7845 23.9587 13.8011 23.949 13.8194 23.9393C13.8433 23.9281 13.8668 23.92 13.8903 23.9047L20.9533 18.9742C21.1466 18.8391 21.2661 18.5833 21.2661 18.3055V9.94717L23.6553 8.50468C23.8162 8.40783 23.9349 8.22586 23.9803 8.00872C24.0253 7.79107 23.9925 7.56017 23.8899 7.37617L20.9039 2.01754ZM11.1072 1.54962L18.2569 2.86978L13.5142 5.64365L6.00384 3.90297L11.1072 1.54962ZM3.97165 4.98662L12.5773 6.98165L10.048 11.7546L1.62744 9.02L3.97165 4.98662ZM4.35985 18.8855V11.486L10.1618 13.3704C10.2125 13.3862 10.2631 13.3949 10.3138 13.3949C10.5136 13.3949 10.7048 13.2705 10.8195 13.0544L12.987 8.96495V22.2012L4.35985 18.8855ZM20.05 17.8549L14.2023 21.9362V9.8595L15.27 12.7134C15.3393 12.8974 15.4642 13.0401 15.6161 13.1074C15.6822 13.138 15.751 13.1517 15.8195 13.1517C15.9099 13.1517 15.9994 13.1263 16.0825 13.0773L20.0492 10.6827L20.05 17.8549ZM16.1097 11.3652L14.4049 6.80936L20.2004 3.41976L22.4834 7.51634L16.1097 11.3652Z" fill="#FF8888"/>
</svg>
