<svg width="60" height="60" viewBox="0 0 60 60" fill="none" xmlns="http://www.w3.org/2000/svg">
<path d="M60 30C60 36.6211 57.8543 42.7406 54.2215 47.7023C48.7641 55.1578 39.9469 52.3339 30 52.3339C20.0531 52.3339 11.2359 55.1578 5.77852 47.7023C2.1457 42.7406 0 36.6211 0 30C0 13.432 13.432 0 30 0C46.568 0 60 13.432 60 30Z" fill="#EF9B14"/>
<path d="M29.9999 52.3339C39.9468 52.3339 48.764 55.1578 54.2214 47.7023C57.8542 42.7406 59.9999 36.6211 59.9999 30C59.9999 29.8243 59.9963 29.6495 59.9933 29.4745L39.1063 8.58749L18.3967 25.7898L22.6372 30.0581C23.1393 31.9084 25.1741 36.9351 25.1741 36.9351L5.77844 47.7023V47.7024C11.236 55.1578 20.0531 52.3339 29.9999 52.3339Z" fill="#DB8200"/>
<path d="M20.1851 35.1949H39.8148V40.3125H20.1851V35.1949Z" fill="#584B66"/>
<path d="M30 35.1949H39.8145V40.3125H30V35.1949Z" fill="#4A3E56"/>
<path d="M23.434 30.5259H36.566V44.4525H23.434V30.5259Z" fill="#FFBB7D"/>
<path d="M30 30.5263H36.566V44.4528H30V30.5263Z" fill="#EFA36A"/>
<path d="M15.769 38.9405H44.231V52.3343H15.769V38.9405Z" fill="#FFD4A6"/>
<path d="M30 38.9405H44.2312V52.3339H30V38.9405Z" fill="#FFBB7D"/>
<path d="M54.2214 47.7024C48.764 55.1578 39.9468 60 29.9999 60C20.0531 60 11.2359 55.1578 5.77844 47.7024C5.92844 42.8379 9.91985 38.9402 14.8206 38.9402H23.4339L29.9999 45.2344L36.5659 38.9402H45.1804C50.0823 38.9402 54.0726 42.8367 54.2214 47.7024Z" fill="#7B7284"/>
<path d="M54.2215 47.7024C48.7641 55.1578 39.9469 60 30 60V45.2344L35.134 40.3125L36.566 38.9402H45.1805C50.0824 38.9402 54.0727 42.8367 54.2215 47.7024Z" fill="#635A6D"/>
<path d="M40.971 17.7128C40.5075 10.6765 34.8159 8.07608 29.9999 8.07608C25.1838 8.07608 19.4923 10.6765 19.0288 17.7128C17.7833 17.9536 16.8987 19.5872 17.038 20.9079L17.2515 23.9135C17.3976 25.3004 18.6167 26.313 19.9603 26.1623L20.192 26.1372C22.9441 33.5274 27.2603 34.298 29.9999 34.7306C32.7395 34.298 37.0556 33.5274 39.8078 26.1372L40.0394 26.1623C41.383 26.313 42.6021 25.3005 42.7482 23.9135L42.9617 20.9079C43.1011 19.5872 42.2164 17.9536 40.971 17.7128Z" fill="#FFD4A6"/>
<path d="M42.9619 20.9079L42.7484 23.9135C42.6022 25.3004 41.3831 26.313 40.0396 26.1623L39.8079 26.1372C38.8672 28.6601 37.7452 30.4122 36.566 31.6417C34.2921 34.0138 31.8048 34.4453 30 34.7306V8.07608C34.8161 8.07608 40.5076 10.6765 40.9711 17.7128C42.2164 17.9536 43.1011 19.5872 42.9619 20.9079Z" fill="#FFBB7D"/>
<path d="M32.3234 23.9675C30.9838 22.8286 29.0162 22.8286 27.6767 23.9675C26.1828 25.2376 24.3066 25.9707 22.3473 26.0501L20.192 26.1373L20.3365 27.0061C21.1223 31.7313 25.2099 35.1954 29.9999 35.1954C34.8973 34.9238 38.9508 31.2909 39.7554 26.4525L39.8078 26.1373L37.6525 26.0501C35.6935 25.9707 33.8173 25.2376 32.3234 23.9675Z" fill="#EFEBDC"/>
<path d="M39.8074 26.1375L39.7559 26.4527C39.3539 28.8727 38.1387 30.9902 36.4125 32.5371C34.6863 34.084 32.4492 35.0602 30 35.1949V23.1129C30.8273 23.1129 31.6547 23.3977 32.3238 23.9672C33.8168 25.2375 35.693 25.9711 37.6523 26.0496L39.8074 26.1375Z" fill="#D6CFBD"/>
<path d="M20.1851 35.1949L30 45.2344L25.0925 50.5078L16.6992 38.9405L20.1851 35.1949Z" fill="#9D97A5"/>
<path d="M39.8149 35.1949L30 45.2344L34.9075 50.5078L43.3008 38.9405L39.8149 35.1949Z" fill="#7F7887"/>
<path d="M23.3496 3.45703C23.3496 3.45703 17.0041 9.64219 18.3184 15.7457L19.2343 21.8262H21.7538L22.9584 17.3423C23.387 15.7471 25.0315 14.7797 26.6222 15.2248C26.7752 15.2675 26.9274 15.3158 27.0786 15.3695L27.5191 15.5258C29.1323 16.0984 30.8915 16.0417 32.4865 15.4202C32.8078 15.2951 33.135 15.1948 33.4654 15.1191C35.0329 14.7601 36.603 15.711 37.0202 17.2641L38.2459 21.8262H40.7654L41.6789 15.4952C41.8749 10.0684 37.5124 3.45703 23.3496 3.45703Z" fill="#494949"/>
<path d="M41.6789 15.4957L40.766 21.8262H38.2465L37.0207 17.2641C36.6035 15.7113 35.0332 14.7598 33.4652 15.1195C33.1348 15.1945 32.8078 15.2953 32.4867 15.4207C31.6852 15.7324 30.8438 15.9024 30 15.9211V4.03946C38.9191 5.76915 41.8395 11.0332 41.6789 15.4957Z" fill="#333333"/>
</svg>
