<svg width="141" height="97" viewBox="0 0 141 97" fill="none" xmlns="http://www.w3.org/2000/svg">
<g clip-path="url(#clip0)">
<path d="M107.953 95.9031C106.148 94.1479 105.051 91.3752 105.339 88.676C105.626 85.9767 107.407 83.4953 109.718 82.9221C112.028 82.3489 114.661 83.9356 115.363 86.5324C115.749 81.5259 116.194 76.3096 118.508 72.046C120.602 68.1855 124.23 65.4231 128.162 64.9289C132.094 64.4348 136.233 66.3012 138.685 69.8721C141.137 73.4431 141.738 78.6344 140.02 82.7341C138.755 85.7542 136.424 88.0018 133.982 89.8303C126.091 95.6892 116.626 98.0718 107.329 96.5397L107.953 95.9031Z" fill="#F2F2F2"/>
<path d="M134.797 66.4047C131.553 69.4453 128.577 72.846 125.912 76.5576C121.741 82.3463 118.365 88.8365 115.904 95.8021C115.723 96.3102 116.44 96.5315 116.619 96.0289C120.647 84.7084 127.077 74.7306 135.322 67.0081C135.692 66.6612 135.164 66.0607 134.797 66.4047Z" fill="white"/>
<path d="M45.3902 95.4262C47.8696 93.0154 49.3756 89.2071 48.9807 85.4997C48.5857 81.7923 46.1395 78.3841 42.9663 77.5968C39.7932 76.8095 36.1761 78.9888 35.2123 82.5556C34.6819 75.6791 34.0707 68.5145 30.8934 62.6585C28.0165 57.3561 23.0336 53.5619 17.6333 52.8832C12.233 52.2044 6.54714 54.768 3.17916 59.6727C-0.188826 64.5773 -1.01346 71.7076 1.34538 77.3386C3.08306 81.4867 6.28448 84.5738 9.63877 87.0853C20.3401 95.0978 33.6151 98.4395 46.2465 96.3005" fill="#F2F2F2"/>
<path d="M8.51943 54.9101C12.9754 59.0864 17.0632 63.7573 20.7238 68.8551C24.3851 73.9477 27.6084 79.437 30.3485 85.2457C31.8801 88.5042 33.256 91.8564 34.47 95.2875C34.7175 95.9854 33.7326 96.2892 33.4878 95.5991C31.3375 89.5501 28.6771 83.7583 25.5449 78.3065C22.4279 72.8745 18.8604 67.8032 14.8924 63.1639C12.648 60.5412 10.2801 58.0624 7.7992 55.7389C7.29069 55.2624 8.01513 54.4376 8.51943 54.9101L8.51943 54.9101Z" fill="white"/>
<path d="M101.212 96.7877H42.0569V26.9476C42.0569 12.0886 52.5626 0 65.4758 0H77.7931C90.7064 0 101.212 12.0886 101.212 26.9476V96.7877Z" fill="#F2F2F2"/>
<path d="M88.8949 96.7878H42.0569V26.9477C42.044 21.2541 43.6108 15.7044 46.5293 11.1066C46.6369 10.9378 46.7442 10.7713 46.8549 10.6066C48.2665 8.47612 49.9464 6.59988 51.8392 5.03976C51.9461 4.95024 52.0534 4.86228 52.1624 4.77432C53.7461 3.51317 55.4594 2.48221 57.263 1.7049C57.3701 1.65819 57.4792 1.61138 57.5882 1.56649C59.2195 0.896636 60.9105 0.437789 62.6299 0.198422C62.7365 0.181666 62.846 0.168554 62.9554 0.155442C64.6311 -0.0507155 66.321 -0.0507155 67.9967 0.155442C68.1058 0.168554 68.2152 0.181664 68.3231 0.198601C70.0421 0.437984 71.7327 0.896775 73.3635 1.5665C73.4726 1.61139 73.5816 1.65819 73.6891 1.705C75.4705 2.4725 77.1635 3.48808 78.7304 4.72907C78.8393 4.81512 78.9483 4.90308 79.0556 4.99104C80.1165 5.86246 81.1131 6.83326 82.035 7.89355C82.7744 8.74402 83.4633 9.65057 84.0972 10.6071C84.2076 10.7713 84.3149 10.9378 84.4222 11.1063C87.3409 15.7042 88.9078 21.254 88.8949 26.9477V96.7878Z" fill="#CCCCCC"/>
<path d="M85.0862 65.5508C86.5183 65.5508 87.6793 64.2149 87.6793 62.567C87.6793 60.9191 86.5183 59.5832 85.0862 59.5832C83.6541 59.5832 82.4931 60.9191 82.4931 62.567C82.4931 64.2149 83.6541 65.5508 85.0862 65.5508Z" fill="#FF9698"/>
<path d="M96.366 94.6958H94.3791L93.4337 85.8771L96.3664 85.8773L96.366 94.6958Z" fill="#FFB8B8"/>
<path d="M92.9598 94.0425H96.7917V96.8188H90.5471C90.5471 96.4542 90.6095 96.0932 90.7307 95.7563C90.852 95.4195 91.0297 95.1135 91.2537 94.8557C91.4778 94.5979 91.7437 94.3934 92.0365 94.2539C92.3292 94.1143 92.6429 94.0425 92.9598 94.0425Z" fill="#2F2E41"/>
<path d="M106.252 94.6958H104.265L103.32 85.8771L106.253 85.8773L106.252 94.6958Z" fill="#FFB8B8"/>
<path d="M102.846 94.0425H106.678V96.8188H100.433C100.433 96.4542 100.496 96.0932 100.617 95.7563C100.738 95.4195 100.916 95.1135 101.14 94.8557C101.364 94.5979 101.63 94.3934 101.923 94.2539C102.215 94.1143 102.529 94.0425 102.846 94.0425Z" fill="#2F2E41"/>
<path d="M86.3986 63.1581C86.2556 62.9158 86.1606 62.6403 86.1202 62.3511C86.0798 62.062 86.0949 61.7661 86.1646 61.4844C86.2343 61.2028 86.3568 60.9421 86.5236 60.7208C86.6903 60.4995 86.8971 60.3229 87.1296 60.2035L93.8839 38.7822L97.2075 40.8693L89.4955 61.3403C89.6439 61.8029 89.6396 62.312 89.4836 62.7713C89.3275 63.2305 89.0305 63.6079 88.6487 63.832C88.267 64.0561 87.8271 64.1112 87.4124 63.987C86.9976 63.8628 86.6369 63.5679 86.3986 63.1581Z" fill="#FFB8B8"/>
<path d="M105.237 67.1833C105.016 67.0376 104.826 66.838 104.68 66.5985C104.533 66.359 104.434 66.0854 104.389 65.7971C104.345 65.5088 104.355 65.2127 104.421 64.9296C104.486 64.6466 104.605 64.3836 104.768 64.159L102.676 41.4989L106.458 41.6977L107.328 63.987C107.638 64.3279 107.828 64.7876 107.862 65.2791C107.897 65.7706 107.774 66.2596 107.516 66.6536C107.259 67.0476 106.884 67.3191 106.464 67.4167C106.044 67.5144 105.608 67.4313 105.237 67.1833Z" fill="#FFB8B8"/>
<path d="M99.2033 34.8144C101.402 34.8144 103.184 32.7637 103.184 30.234C103.184 27.7044 101.402 25.6537 99.2033 25.6537C97.0049 25.6537 95.2228 27.7044 95.2228 30.234C95.2228 32.7637 97.0049 34.8144 99.2033 34.8144Z" fill="#FFB8B8"/>
<path d="M105.212 62.0297H93.2112L93.2256 61.9222C93.2472 61.7616 95.3644 45.8023 93.8029 40.5812C93.6462 40.0681 93.66 39.5064 93.8416 39.0043C94.0232 38.5022 94.3597 38.0952 94.7865 37.8615H94.7866C97.0185 36.6521 101.303 35.1628 104.919 38.777C105.451 39.3176 105.867 39.9932 106.133 40.7505C106.399 41.5078 106.508 42.3259 106.452 43.1401L105.212 62.0297Z" fill="#FF9698"/>
<path d="M95.5161 48.1608L90.1132 46.8996L92.6457 39.9939C92.7973 39.3251 93.1732 38.7527 93.691 38.4023C94.2089 38.052 94.8263 37.9523 95.4079 38.125C95.9896 38.2978 96.4879 38.729 96.7936 39.324C97.0993 39.919 97.1875 40.6292 97.0387 41.2989L95.5161 48.1608Z" fill="#FF9698"/>
<path d="M102.436 50.5027L102.111 41.9351C101.865 40.3245 102.666 38.802 103.898 38.5532C105.131 38.3052 106.334 39.4222 106.582 41.0446L107.803 49.0502L102.436 50.5027Z" fill="#FF9698"/>
<path d="M104.813 61.004C106.744 69.4662 106.954 80.2252 106.433 91.9611L103.84 91.5881L99.1402 69.2095L96.5471 91.9611L93.6299 91.7746C92.7583 79.4608 91.9098 68.8896 93.3057 61.9364L104.813 61.004Z" fill="#2F2E41"/>
<path d="M101.826 33.7739C101.084 34.6841 99.7045 34.1954 99.6077 32.952C99.6001 32.8554 99.6007 32.7583 99.6094 32.6619C99.6593 32.111 99.9359 31.611 99.8696 31.0294C99.8546 30.8847 99.8078 30.7467 99.7335 30.6287C99.1417 29.7169 97.7526 31.0365 97.1941 30.2111C96.8517 29.7049 97.2542 28.908 96.9914 28.3423C96.6446 27.5957 95.6173 27.964 94.973 27.5551C94.2562 27.1002 94.2991 25.8347 94.771 25.065C95.3464 24.1263 96.3553 23.6254 97.3516 23.5532C98.348 23.481 99.3375 23.791 100.268 24.2081C101.325 24.682 102.373 25.337 103.023 26.4063C103.814 27.7067 103.89 29.455 103.494 30.9756C103.254 31.9006 102.433 33.0306 101.826 33.7739Z" fill="#2F2E41"/>
<path d="M136.135 96.9077H16.4804C16.4294 96.9075 16.3804 96.884 16.3443 96.8424C16.3083 96.8008 16.288 96.7444 16.288 96.6856C16.288 96.6268 16.3083 96.5705 16.3443 96.5288C16.3804 96.4872 16.4294 96.4637 16.4804 96.4636H136.135C136.186 96.4637 136.235 96.4872 136.271 96.5288C136.307 96.5705 136.327 96.6268 136.327 96.6856C136.327 96.7444 136.307 96.8008 136.271 96.8424C136.235 96.884 136.186 96.9075 136.135 96.9077Z" fill="#3F3D56"/>
<path d="M76.0103 76.5536H54.9414C54.6639 76.5554 54.3972 76.4304 54.1997 76.2061C54.0022 75.9818 53.8901 75.6765 53.8879 75.3573V21.2439C53.8901 20.9246 54.0022 20.6194 54.1997 20.3951C54.3972 20.1708 54.6639 20.0458 54.9414 20.0475H76.0103C76.2878 20.0458 76.5546 20.1708 76.7521 20.3951C76.9495 20.6194 77.0617 20.9246 77.0638 21.2439V75.3573C77.0617 75.6765 76.9495 75.9818 76.7521 76.2061C76.5546 76.4304 76.2878 76.5554 76.0103 76.5536Z" fill="white"/>
<path d="M77.0638 37.5569H53.8879V37.9299H77.0638V37.5569Z" fill="#CCCCCC"/>
<path d="M77.1448 58.8372H53.9689V59.2102H77.1448V58.8372Z" fill="#CCCCCC"/>
<path d="M61.5052 20.0475H61.181V76.7401H61.5052V20.0475Z" fill="#CCCCCC"/>
<path d="M69.6086 20.0475H69.2845V76.7401H69.6086V20.0475Z" fill="#CCCCCC"/>
</g>
<defs>
<clipPath id="clip0">
<rect width="141" height="97" fill="white"/>
</clipPath>
</defs>
</svg>
