<svg width="141" height="97" viewBox="0 0 141 97" fill="none" xmlns="http://www.w3.org/2000/svg">
<path d="M9.74801 91.0183L18.0639 77.3524L9.74379 92.5048L9.73894 94.0596C9.14591 94.0539 8.55888 94.0318 7.97784 93.9934C7.97519 93.6404 8.682 74.2156 8.65196 73.8642C8.69298 73.8509 8.71599 72.0271 8.73227 71.9472L0.0446472 57.0135L8.7416 70.5338L8.76753 70.9335L9.28347 55.8417L1.81553 40.3872L9.34254 53.19C9.34534 52.9846 9.6988 21.9978 9.70228 21.8066C9.70442 21.9082 9.86664 46.466 9.86784 46.5695L17.01 36.6846L9.86098 48.6936L9.82447 62.2006L16.4524 49.1391C8.18082 68.1872 10.0114 61.5216 9.8001 71.697L19.4275 53.5098L9.79186 74.3171L9.74801 91.0183Z" fill="#D0CDE1"/>
<path d="M136.966 92.8736L140.432 87.1787L136.965 93.493L136.963 94.141C136.715 94.1386 136.471 94.1294 136.229 94.1134C136.228 93.9663 136.522 85.8715 136.51 85.7251C136.527 85.7195 136.536 84.9595 136.543 84.9262L132.923 78.703L136.547 84.3372L136.558 84.5038L136.773 78.2147L133.661 71.7744L136.797 77.1096C136.798 77.024 136.946 64.111 136.947 64.0314C136.948 64.0737 137.016 74.3076 137.016 74.3507L139.993 70.2314L137.013 75.2358L136.998 80.8646L139.76 75.4215C136.313 83.3593 137.076 80.5816 136.988 84.8219L141 77.2429L136.985 85.9138L136.966 92.8736Z" fill="#D0CDE1"/>
<path d="M70.2695 97C109.078 97 140.539 95.5902 140.539 93.8511C140.539 92.1121 109.078 90.7023 70.2695 90.7023C31.4607 90.7023 0 92.1121 0 93.8511C0 95.5902 31.4607 97 70.2695 97Z" fill="#D0CDE1"/>
<path d="M104.355 37.1912H24.1224V91.9021H104.355V37.1912Z" fill="#3F3D56"/>
<path d="M43.9788 37.1912C43.8967 42.9484 41.8397 48.4381 38.2513 52.4765C34.6628 56.5148 29.8305 58.7784 24.7962 58.779C24.5707 58.779 24.3466 58.7745 24.1224 58.7655V37.1912H43.9788Z" fill="#FF9698"/>
<path d="M68.1637 91.902H60.5328C60.8199 91.0089 61.3397 90.238 62.022 89.6935C62.7043 89.149 63.5163 88.857 64.3482 88.857C65.1802 88.857 65.9922 89.149 66.6745 89.6935C67.3568 90.238 67.8766 91.0089 68.1637 91.902Z" fill="#FF9698"/>
<path d="M104.355 63.6027V82.0311C102.287 81.9154 100.337 80.8942 98.9084 79.1789C97.4801 77.4635 96.6835 75.1856 96.6835 72.8169C96.6835 70.4482 97.4801 68.1703 98.9084 66.4549C100.337 64.7396 102.287 63.7184 104.355 63.6027Z" fill="#FF9698"/>
<path d="M89.616 57.0717H39.001C37.6954 57.0717 36.6371 58.2822 36.6371 59.7754V59.7754C36.6371 61.2686 37.6954 62.4791 39.001 62.4791H89.616C90.9215 62.4791 91.9799 61.2686 91.9799 59.7754C91.9799 58.2822 90.9215 57.0717 89.616 57.0717Z" fill="white"/>
<path d="M89.616 67.7275H39.001C37.6954 67.7275 36.6371 68.938 36.6371 70.4312V70.4312C36.6371 71.9244 37.6954 73.1349 39.001 73.1349H89.616C90.9215 73.1349 91.9799 71.9244 91.9799 70.4312C91.9799 68.938 90.9215 67.7275 89.616 67.7275Z" fill="white"/>
<path d="M89.616 78.3833H74.9404C73.6349 78.3833 72.5765 79.5938 72.5765 81.087C72.5765 82.5802 73.6349 83.7907 74.9404 83.7907H89.616C90.9215 83.7907 91.9799 82.5802 91.9799 81.087C91.9799 79.5938 90.9215 78.3833 89.616 78.3833Z" fill="white"/>
<path d="M117.079 16.8119C117.079 16.8119 119.285 17.7932 119.408 21.0176C119.53 24.2419 118.795 33.214 118.795 33.214C118.795 33.214 121.492 37.7001 119.408 38.9618C117.324 40.2235 117.079 33.915 117.079 33.915L114.628 20.597C114.628 20.597 116.098 16.6717 117.079 16.8119Z" fill="#A0616A"/>
<path d="M94.5263 27.1859C94.5263 27.1859 89.2558 31.1112 89.0107 28.027C88.7655 24.9429 90.6041 12.8866 90.6041 12.8866C90.6041 12.8866 90.8492 7.69961 93.4232 8.96132C95.9971 10.223 92.6877 14.5689 92.6877 14.5689L93.0554 24.3821L95.5068 24.2419L94.5263 27.1859Z" fill="#A0616A"/>
<path d="M102.984 30.8308C102.984 30.8308 86.8044 23.9615 87.6624 31.9523C88.5203 39.9431 92.6877 50.0367 92.6877 50.0367L94.1585 52.7003H97.2228L95.2616 38.2608C95.2616 38.2608 102.248 42.7469 104.332 42.0459C104.332 42.0459 107.028 62.6538 108.009 64.1958C108.989 65.7379 110.705 84.3831 110.705 84.3831L112.299 86.6261H115.363V55.0835C115.363 55.0835 120.633 35.4571 116.589 34.4757C112.544 33.4944 102.984 30.8308 102.984 30.8308Z" fill="#2F2E41"/>
<path d="M93.7909 50.8779C93.7909 50.8779 93.0554 49.3358 91.8298 50.8779C90.6041 52.4199 87.6624 54.2424 87.6624 54.2424C87.6624 54.2424 81.2888 55.9247 86.4367 57.3266C91.5846 58.7285 92.1975 57.3266 92.1975 57.3266C92.1975 57.3266 93.0554 57.6069 93.7909 57.8873C94.5263 58.1677 99.3065 57.1864 99.3065 56.3452C99.3065 55.5041 97.6837 50.4772 97.0242 51.2383C96.3648 51.9994 93.7909 50.8779 93.7909 50.8779Z" fill="#2F2E41"/>
<path d="M112.534 85.2385C112.534 85.2385 110.726 83.5362 110.301 84.0226C109.876 84.5089 107.644 87.7918 107.644 87.7918C107.644 87.7918 101.69 93.0202 107.112 93.8713C112.534 94.7224 112.215 92.4122 112.215 92.4122H113.916C114.128 92.4122 116.999 90.9532 116.892 90.3452C116.786 89.7373 115.51 84.7799 115.085 85.1308C114.66 85.4816 112.534 85.2385 112.534 85.2385Z" fill="#2F2E41"/>
<path d="M96.1197 11.4847C98.4212 11.4847 100.287 9.3507 100.287 6.71828C100.287 4.08585 98.4212 1.95184 96.1197 1.95184C93.8181 1.95184 91.9523 4.08585 91.9523 6.71828C91.9523 9.3507 93.8181 11.4847 96.1197 11.4847Z" fill="#A0616A"/>
<path d="M99.0613 6.15753C99.0613 6.15753 102.248 9.24169 104.454 9.24169C106.661 9.24169 101.268 14.9895 101.268 14.9895L96.4874 10.0828L99.0613 6.15753Z" fill="#A0616A"/>
<path d="M100.287 14.9895L100.192 13.885C100.192 13.885 102.616 8.96132 103.351 8.54075C104.087 8.12018 104.577 8.12018 104.577 8.12018C104.577 8.12018 107.028 5.17621 109.725 6.71829C112.421 8.26037 118.795 18.0736 118.795 18.0736C118.795 18.0736 114.26 18.4942 114.873 22.5597C114.873 22.5597 119.408 35.8776 118.182 36.0178C116.956 36.158 113.279 35.1767 109.48 37.1393C105.68 39.102 103.964 37.8403 103.964 37.8403L102.003 30.5504C102.003 30.5504 98.3259 28.1672 98.4485 26.0644L93.1167 28.7981L93.607 23.6111L96.8551 19.3353C96.8551 19.3353 96.2422 18.7746 100.287 14.9895Z" fill="#FF9698"/>
<path d="M92.2862 7.23359C92.1206 7.44413 91.913 7.60583 91.6811 7.70498C91.4437 7.78154 91.1447 7.68765 91.0501 7.42716L91.2263 7.16484L90.698 6.78939L90.9282 6.48048L90.5027 5.95203L90.8386 5.64728L90.1992 5.12426C91.0279 3.57762 91.9241 2.01161 93.2324 0.986337C94.5408 -0.038938 96.3689 -0.403254 97.7092 0.566517C98.4051 1.07001 98.8972 1.86913 99.2913 2.69601C100.084 4.35895 100.783 5.97994 100.886 7.8703C100.388 7.31569 99.661 7.00316 99.1631 6.44855C98.9426 6.18095 98.6928 5.94706 98.4199 5.7527C97.899 5.41678 97.2759 5.38706 96.6928 5.23554C96.2026 5.10812 95.8844 4.85537 95.5135 4.49404C95.0723 4.06421 95.0543 4.23041 94.6088 4.71435C93.8351 5.55469 93.0609 6.39444 92.2862 7.23359Z" fill="#2F2E41"/>
</svg>
