<svg width="20" height="20" viewBox="0 0 20 20" fill="none" xmlns="http://www.w3.org/2000/svg">
<g clip-path="url(#clip0)">
<path d="M15.8064 12.3893C15.397 11.963 14.9031 11.735 14.3797 11.735C13.8605 11.735 13.3624 11.9587 12.936 12.3851L11.6022 13.7147C11.4924 13.6556 11.3827 13.6008 11.2771 13.5459C11.1252 13.4699 10.9816 13.3981 10.8592 13.3222C9.60978 12.5286 8.47429 11.4944 7.38524 10.1563C6.8576 9.48937 6.50302 8.92796 6.24553 8.3581C6.59166 8.04152 6.91247 7.71227 7.22484 7.39569C7.34303 7.27749 7.46122 7.15508 7.57941 7.03689C8.46585 6.15045 8.46585 5.0023 7.57941 4.11586L6.42704 2.96349C6.29619 2.83264 6.16111 2.69756 6.03447 2.56248C5.78121 2.30077 5.51527 2.03062 5.2409 1.77735C4.83145 1.37212 4.3418 1.15685 3.82682 1.15685C3.31184 1.15685 2.81375 1.37212 2.39163 1.77735C2.38741 1.78157 2.38741 1.78157 2.38319 1.78579L0.948004 3.23364C0.407699 3.77395 0.099556 4.43245 0.0320178 5.19647C-0.0692895 6.42905 0.293728 7.57719 0.572323 8.32856C1.25615 10.1732 2.27766 11.8828 3.80149 13.7147C5.65035 15.9224 7.87489 17.6657 10.416 18.8941C11.3869 19.3542 12.6828 19.8987 14.1306 19.9916C14.2193 19.9958 14.3121 20 14.3965 20C15.3716 20 16.1905 19.6496 16.8321 18.9532C16.8364 18.9447 16.8448 18.9405 16.849 18.9321C17.0685 18.6661 17.3218 18.4255 17.5877 18.168C17.7692 17.995 17.955 17.8135 18.1365 17.6235C18.5544 17.1887 18.7739 16.6822 18.7739 16.163C18.7739 15.6396 18.5501 15.1373 18.1238 14.7151L15.8064 12.3893ZM17.3176 16.8341C17.3134 16.8341 17.3134 16.8384 17.3176 16.8341C17.153 17.0114 16.9841 17.1718 16.8026 17.3491C16.5282 17.6108 16.2496 17.8852 15.9879 18.1934C15.5616 18.6492 15.0593 18.8645 14.4008 18.8645C14.3375 18.8645 14.2699 18.8645 14.2066 18.8603C12.9529 18.7801 11.7879 18.2904 10.9141 17.8725C8.52495 16.716 6.42704 15.0739 4.68371 12.9929C3.2443 11.258 2.28188 9.65399 1.64449 7.93177C1.25193 6.88071 1.10841 6.06181 1.17172 5.28934C1.21394 4.79547 1.40389 4.38602 1.75424 4.03566L3.19365 2.59625C3.40049 2.40208 3.61998 2.29655 3.83526 2.29655C4.10119 2.29655 4.31647 2.45696 4.45155 2.59203C4.45577 2.59625 4.45999 2.60047 4.46421 2.6047C4.7217 2.8453 4.96653 3.09435 5.22402 3.36028C5.35487 3.49536 5.48995 3.63043 5.62502 3.76973L6.77739 4.9221C7.22483 5.36954 7.22483 5.78321 6.77739 6.23065C6.65498 6.35307 6.53679 6.47548 6.41438 6.59367C6.0598 6.95669 5.72211 7.29438 5.35487 7.62363C5.34643 7.63207 5.33799 7.63629 5.33377 7.64473C4.97075 8.00775 5.03829 8.36233 5.11427 8.60293C5.11849 8.61559 5.12271 8.62826 5.12693 8.64092C5.42663 9.36696 5.84874 10.0508 6.49036 10.8655L6.49458 10.8697C7.65961 12.3049 8.88796 13.4235 10.2429 14.2804C10.416 14.3901 10.5933 14.4788 10.7621 14.5632C10.9141 14.6392 11.0576 14.7109 11.18 14.7869C11.1969 14.7953 11.2138 14.808 11.2307 14.8164C11.3742 14.8882 11.5093 14.922 11.6486 14.922C11.9989 14.922 12.2184 14.7025 12.2902 14.6307L13.7338 13.1871C13.8773 13.0436 14.1053 12.8705 14.3712 12.8705C14.6329 12.8705 14.8482 13.0351 14.9791 13.1786C14.9833 13.1829 14.9833 13.1829 14.9875 13.1871L17.3134 15.5129C17.7481 15.9435 17.7481 16.3867 17.3176 16.8341Z" fill="#FF8888"/>
<path d="M10.8085 4.75747C11.9145 4.9432 12.9191 5.46662 13.7211 6.26864C14.5231 7.07066 15.0423 8.07529 15.2323 9.18123C15.2787 9.45982 15.5193 9.65399 15.7937 9.65399C15.8275 9.65399 15.857 9.64977 15.8908 9.64555C16.2032 9.5949 16.41 9.29942 16.3593 8.98705C16.1314 7.64895 15.4982 6.42904 14.5316 5.4624C13.5649 4.49576 12.345 3.86259 11.0069 3.63465C10.6946 3.584 10.4033 3.79083 10.3484 4.09898C10.2936 4.40712 10.4962 4.70682 10.8085 4.75747Z" fill="#FF8888"/>
<path d="M19.9767 8.82243C19.6011 6.619 18.5627 4.61396 16.9671 3.01837C15.3715 1.42278 13.3664 0.38438 11.163 0.00869917C10.8549 -0.0461756 10.5636 0.164881 10.5087 0.473024C10.4581 0.785388 10.6649 1.07665 10.9773 1.13152C12.9443 1.46499 14.7383 2.39786 16.165 3.82038C17.5918 5.24713 18.5204 7.04111 18.8539 9.00816C18.9003 9.28676 19.141 9.48093 19.4153 9.48093C19.4491 9.48093 19.4786 9.47671 19.5124 9.47249C19.8206 9.42605 20.0316 9.13057 19.9767 8.82243Z" fill="#FF8888"/>
</g>
<defs>
<clipPath id="clip0">
<rect width="20" height="20" fill="white"/>
</clipPath>
</defs>
</svg>
